<svg width="1533" height="352" viewBox="0 0 1533 352" fill="none" xmlns="http://www.w3.org/2000/svg">
<path d="M391.499 0H322.499V352H391.499V0Z" fill="black"/>
<path d="M810 0H741V352H810V0Z" fill="black"/>
<path d="M586.5 239.5H643V283H594.5C566.122 283 538.906 271.727 518.84 251.66C498.773 231.594 487.5 204.378 487.5 176C487.5 147.622 498.773 120.406 518.84 100.34C538.906 80.2732 566.122 69 594.5 69H663V0H594.5C497.453 0 418.5 78.954 418.5 176C418.5 273.046 497.453 352 594.5 352H663V303H712V170.5H586.5V239.5Z" fill="black"/>
<path d="M837.249 0V69H925.903V352H994.903V69H1091.9V352H1160.9V69H1250.39V0H837.249Z" fill="black"/>
<path d="M224.5 176C224.468 204.368 213.184 231.565 193.125 251.625C173.065 271.684 145.868 282.968 117.5 283H69V69H117.5C145.868 69.0323 173.065 80.3158 193.125 100.375C213.184 120.435 224.468 147.632 224.5 176ZM117.5 0H49V49H0V303H49V352H117.5C214.547 352 293.5 273.047 293.5 176C293.5 78.953 214.546 0 117.5 0Z" fill="black"/>
<path d="M1263.99 3.76001L1362.62 174.6V352H1431.62V174.536L1532.39 0H1452.72L1397.1 96.322L1341.49 0H1262.03" fill="black"/>
</svg>
